<svg height='100px' width='100px' class="job-icons" xmlns="http://www.w3.org/2000/svg" xmlns:xlink="http://www.w3.org/1999/xlink" version="1.1" x="0px" y="0px" viewBox="0 0 260 260" enable-background="new 0 0 260 260" xml:space="preserve"><path d="M234.885,222h-4.677v-78.744c0-4.903-2.867-9.354-7.332-11.382l-34.862-15.831V69.892V27.241c0-6.904-5.597-12.5-12.5-12.5  H85.042c-6.903,0-12.5,5.596-12.5,12.5v34.73L38.31,78.137c-4.373,2.065-7.162,6.467-7.162,11.303V222h-3.731  c-6.903,0-12.5,5.597-12.5,12.5s5.597,12.5,12.5,12.5h207.468c6.903,0,12.5-5.597,12.5-12.5S241.788,222,234.885,222z   M56.148,136.596h16.394v28.313H56.148V136.596z M97.542,136.596h19.077v28.313H97.542V136.596z M97.542,82.392h19.077v29.203  H97.542V82.392z M163.014,164.909h-21.395v-28.313h21.395V164.909z M163.014,111.595h-21.395V82.392h21.395V111.595z   M116.619,189.909V222H97.542v-32.091H116.619z M141.619,189.909h21.395V222h-21.395V189.909z M188.014,189.909h17.194V222h-17.194  V189.909z M205.208,151.308v13.602h-17.194V143.5L205.208,151.308z M163.014,57.392h-21.395V39.741h21.395V57.392z M116.619,39.741  v17.651H97.542V39.741H116.619z M72.542,89.619v21.976H56.148V97.361L72.542,89.619z M56.148,189.909h16.394V222H56.148V189.909z"></path></svg>