<svg height='100px' width='100px'  fill="#000000" xmlns="http://www.w3.org/2000/svg" viewBox="0 0 32 32" x="0px" y="0px"><g><path d="M18.573,4H4A1,1,0,0,0,3,5V27a1,1,0,0,0,1,1H18.573a1,1,0,0,0,1-1V5A1,1,0,0,0,18.573,4Zm-1,22H5V6H17.573ZM26,4.391H24.573a3,3,0,0,0-3,3V23.083a2,2,0,0,0,.345,1.124l1.714,2.525a2,2,0,0,0,1.653.877h0a2,2,0,0,0,1.656-.877l1.713-2.526h0A2,2,0,0,0,29,23.083V7.391A3,3,0,0,0,26,4.391Zm-1.427,2H26a1,1,0,0,1,1,1V8.836H23.573V7.391A1,1,0,0,1,24.573,6.391ZM27,23.084l-1.713,2.525-1.713-2.526V10.836H27V23.083ZM6.909,10a1,1,0,0,1,1-1h6.754a1,1,0,0,1,0,2H7.909A1,1,0,0,1,6.909,10Zm0,4a1,1,0,0,1,1-1h6.754a1,1,0,0,1,0,2H7.909A1,1,0,0,1,6.909,14Zm0,4a1,1,0,0,1,1-1h6.754a1,1,0,0,1,0,2H7.909A1,1,0,0,1,6.909,18Zm0,4a1,1,0,0,1,1-1h6.754a1,1,0,0,1,0,2H7.909A1,1,0,0,1,6.909,22Z"></path></g></svg>